<svg xmlns="http://www.w3.org/2000/svg" viewBox="0 0 532 276" width="532" height="276" shape-rendering="crispEdges">
<rect x="1" y="1" width="530" height="274" rx="8" fill="#10161d" stroke="#30363d" stroke-width="2"/>
<g fill="#d7e3ee">
<rect x="118" y="10" width="24" height="3"/>
<rect x="170" y="10" width="12" height="3"/>
<rect x="210" y="10" width="12" height="3"/>
<rect x="246" y="10" width="40" height="3"/>
<rect x="306" y="10" width="40" height="3"/>
<rect x="390" y="10" width="24" height="3"/>
<rect x="114" y="14" width="32" height="3"/>
<rect x="170" y="14" width="12" height="3"/>
<rect x="206" y="14" width="12" height="3"/>
<rect x="246" y="14" width="40" height="3"/>
<rect x="306" y="14" width="44" height="3"/>
<rect x="386" y="14" width="32" height="3"/>
<rect x="110" y="18" width="12" height="3"/>
<rect x="138" y="18" width="12" height="3"/>
<rect x="170" y="18" width="12" height="3"/>
<rect x="202" y="18" width="12" height="3"/>
<rect x="258" y="18" width="16" height="3"/>
<rect x="306" y="18" width="12" height="3"/>
<rect x="338" y="18" width="16" height="3"/>
<rect x="382" y="18" width="12" height="3"/>
<rect x="410" y="18" width="12" height="3"/>
<rect x="110" y="22" width="12" height="3"/>
<rect x="138" y="22" width="12" height="3"/>
<rect x="170" y="22" width="12" height="3"/>
<rect x="198" y="22" width="12" height="3"/>
<rect x="258" y="22" width="16" height="3"/>
<rect x="306" y="22" width="12" height="3"/>
<rect x="342" y="22" width="12" height="3"/>
<rect x="382" y="22" width="12" height="3"/>
<rect x="410" y="22" width="12" height="3"/>
<rect x="106" y="26" width="12" height="3"/>
<rect x="142" y="26" width="12" height="3"/>
<rect x="170" y="26" width="12" height="3"/>
<rect x="194" y="26" width="12" height="3"/>
<rect x="258" y="26" width="16" height="3"/>
<rect x="306" y="26" width="12" height="3"/>
<rect x="342" y="26" width="12" height="3"/>
<rect x="378" y="26" width="12" height="3"/>
<rect x="414" y="26" width="12" height="3"/>
<rect x="106" y="30" width="12" height="3"/>
<rect x="142" y="30" width="12" height="3"/>
<rect x="170" y="30" width="12" height="3"/>
<rect x="190" y="30" width="12" height="3"/>
<rect x="258" y="30" width="16" height="3"/>
<rect x="306" y="30" width="12" height="3"/>
<rect x="338" y="30" width="16" height="3"/>
<rect x="378" y="30" width="12" height="3"/>
<rect x="414" y="30" width="12" height="3"/>
<rect x="102" y="34" width="12" height="3"/>
<rect x="146" y="34" width="12" height="3"/>
<rect x="170" y="34" width="12" height="3"/>
<rect x="186" y="34" width="12" height="3"/>
<rect x="258" y="34" width="16" height="3"/>
<rect x="306" y="34" width="44" height="3"/>
<rect x="374" y="34" width="12" height="3"/>
<rect x="418" y="34" width="12" height="3"/>
<rect x="102" y="42" width="56" height="3"/>
<rect x="170" y="42" width="24" height="3"/>
<rect x="258" y="42" width="16" height="3"/>
<rect x="306" y="42" width="12" height="3"/>
<rect x="326" y="42" width="12" height="3"/>
<rect x="374" y="42" width="56" height="3"/>
<rect x="102" y="46" width="56" height="3"/>
<rect x="170" y="46" width="12" height="3"/>
<rect x="186" y="46" width="12" height="3"/>
<rect x="258" y="46" width="16" height="3"/>
<rect x="306" y="46" width="12" height="3"/>
<rect x="330" y="46" width="12" height="3"/>
<rect x="374" y="46" width="56" height="3"/>
<rect x="102" y="50" width="12" height="3"/>
<rect x="146" y="50" width="12" height="3"/>
<rect x="170" y="50" width="12" height="3"/>
<rect x="190" y="50" width="12" height="3"/>
<rect x="258" y="50" width="16" height="3"/>
<rect x="306" y="50" width="12" height="3"/>
<rect x="334" y="50" width="12" height="3"/>
<rect x="374" y="50" width="12" height="3"/>
<rect x="418" y="50" width="12" height="3"/>
<rect x="102" y="58" width="12" height="3"/>
<rect x="146" y="58" width="12" height="3"/>
<rect x="170" y="58" width="12" height="3"/>
<rect x="198" y="58" width="12" height="3"/>
<rect x="258" y="58" width="16" height="3"/>
<rect x="306" y="58" width="12" height="3"/>
<rect x="342" y="58" width="12" height="3"/>
<rect x="374" y="58" width="12" height="3"/>
<rect x="418" y="58" width="12" height="3"/>
<rect x="102" y="66" width="12" height="3"/>
<rect x="146" y="66" width="12" height="3"/>
<rect x="170" y="66" width="12" height="3"/>
<rect x="206" y="66" width="12" height="3"/>
<rect x="246" y="66" width="40" height="3"/>
<rect x="306" y="66" width="12" height="3"/>
<rect x="350" y="66" width="12" height="3"/>
<rect x="374" y="66" width="12" height="3"/>
<rect x="418" y="66" width="12" height="3"/>
<rect x="42" y="110" width="448" height="3"/>
<rect x="42" y="114" width="448" height="3"/>
<rect x="142" y="138" width="24" height="3"/>
<rect x="202" y="138" width="16" height="3"/>
<rect x="230" y="138" width="16" height="3"/>
<rect x="254" y="138" width="4" height="3"/>
<rect x="274" y="138" width="4" height="3"/>
<rect x="314" y="138" width="16" height="3"/>
<rect x="350" y="138" width="8" height="3"/>
<rect x="366" y="138" width="8" height="3"/>
<rect x="386" y="138" width="4" height="3"/>
<rect x="162" y="142" width="4" height="3"/>
<rect x="198" y="142" width="4" height="3"/>
<rect x="218" y="142" width="4" height="3"/>
<rect x="226" y="142" width="4" height="3"/>
<rect x="246" y="142" width="4" height="3"/>
<rect x="254" y="142" width="4" height="3"/>
<rect x="274" y="142" width="4" height="3"/>
<rect x="310" y="142" width="4" height="3"/>
<rect x="330" y="142" width="4" height="3"/>
<rect x="346" y="142" width="4" height="3"/>
<rect x="354" y="142" width="4" height="3"/>
<rect x="366" y="142" width="8" height="3"/>
<rect x="382" y="142" width="4" height="3"/>
<rect x="158" y="146" width="4" height="3"/>
<rect x="198" y="146" width="4" height="3"/>
<rect x="218" y="146" width="4" height="3"/>
<rect x="226" y="146" width="4" height="3"/>
<rect x="246" y="146" width="4" height="3"/>
<rect x="254" y="146" width="4" height="3"/>
<rect x="274" y="146" width="4" height="3"/>
<rect x="310" y="146" width="4" height="3"/>
<rect x="330" y="146" width="4" height="3"/>
<rect x="342" y="146" width="4" height="3"/>
<rect x="354" y="146" width="4" height="3"/>
<rect x="378" y="146" width="4" height="3"/>
<rect x="154" y="150" width="4" height="3"/>
<rect x="202" y="150" width="20" height="3"/>
<rect x="230" y="150" width="16" height="3"/>
<rect x="258" y="150" width="4" height="3"/>
<rect x="270" y="150" width="4" height="3"/>
<rect x="314" y="150" width="16" height="3"/>
<rect x="338" y="150" width="4" height="3"/>
<rect x="354" y="150" width="4" height="3"/>
<rect x="374" y="150" width="4" height="3"/>
<rect x="150" y="154" width="4" height="3"/>
<rect x="218" y="154" width="4" height="3"/>
<rect x="226" y="154" width="4" height="3"/>
<rect x="246" y="154" width="4" height="3"/>
<rect x="258" y="154" width="4" height="3"/>
<rect x="270" y="154" width="4" height="3"/>
<rect x="310" y="154" width="4" height="3"/>
<rect x="330" y="154" width="4" height="3"/>
<rect x="338" y="154" width="24" height="3"/>
<rect x="370" y="154" width="4" height="3"/>
<rect x="150" y="158" width="4" height="3"/>
<rect x="178" y="158" width="8" height="3"/>
<rect x="214" y="158" width="4" height="3"/>
<rect x="226" y="158" width="4" height="3"/>
<rect x="246" y="158" width="4" height="3"/>
<rect x="258" y="158" width="4" height="3"/>
<rect x="270" y="158" width="4" height="3"/>
<rect x="310" y="158" width="4" height="3"/>
<rect x="330" y="158" width="4" height="3"/>
<rect x="354" y="158" width="4" height="3"/>
<rect x="366" y="158" width="4" height="3"/>
<rect x="382" y="158" width="8" height="3"/>
<rect x="150" y="162" width="4" height="3"/>
<rect x="178" y="162" width="8" height="3"/>
<rect x="198" y="162" width="16" height="3"/>
<rect x="230" y="162" width="16" height="3"/>
<rect x="262" y="162" width="8" height="3"/>
<rect x="314" y="162" width="16" height="3"/>
<rect x="354" y="162" width="4" height="3"/>
<rect x="366" y="162" width="4" height="3"/>
<rect x="382" y="162" width="8" height="3"/>
<rect x="146" y="202" width="16" height="3"/>
<rect x="170" y="202" width="4" height="3"/>
<rect x="186" y="202" width="4" height="3"/>
<rect x="198" y="202" width="20" height="3"/>
<rect x="226" y="202" width="20" height="3"/>
<rect x="258" y="202" width="16" height="3"/>
<rect x="314" y="202" width="16" height="3"/>
<rect x="370" y="202" width="16" height="3"/>
<rect x="142" y="206" width="4" height="3"/>
<rect x="162" y="206" width="4" height="3"/>
<rect x="170" y="206" width="4" height="3"/>
<rect x="182" y="206" width="4" height="3"/>
<rect x="206" y="206" width="4" height="3"/>
<rect x="226" y="206" width="4" height="3"/>
<rect x="246" y="206" width="4" height="3"/>
<rect x="254" y="206" width="4" height="3"/>
<rect x="274" y="206" width="4" height="3"/>
<rect x="310" y="206" width="4" height="3"/>
<rect x="330" y="206" width="4" height="3"/>
<rect x="366" y="206" width="4" height="3"/>
<rect x="386" y="206" width="4" height="3"/>
<rect x="142" y="210" width="4" height="3"/>
<rect x="162" y="210" width="4" height="3"/>
<rect x="170" y="210" width="4" height="3"/>
<rect x="178" y="210" width="4" height="3"/>
<rect x="206" y="210" width="4" height="3"/>
<rect x="226" y="210" width="4" height="3"/>
<rect x="246" y="210" width="4" height="3"/>
<rect x="254" y="210" width="4" height="3"/>
<rect x="274" y="210" width="4" height="3"/>
<rect x="310" y="210" width="4" height="3"/>
<rect x="330" y="210" width="4" height="3"/>
<rect x="366" y="210" width="4" height="3"/>
<rect x="386" y="210" width="4" height="3"/>
<rect x="142" y="214" width="24" height="3"/>
<rect x="170" y="214" width="12" height="3"/>
<rect x="206" y="214" width="4" height="3"/>
<rect x="226" y="214" width="20" height="3"/>
<rect x="254" y="214" width="24" height="3"/>
<rect x="310" y="214" width="4" height="3"/>
<rect x="330" y="214" width="4" height="3"/>
<rect x="370" y="214" width="20" height="3"/>
<rect x="142" y="218" width="4" height="3"/>
<rect x="162" y="218" width="4" height="3"/>
<rect x="170" y="218" width="4" height="3"/>
<rect x="182" y="218" width="4" height="3"/>
<rect x="206" y="218" width="4" height="3"/>
<rect x="226" y="218" width="4" height="3"/>
<rect x="238" y="218" width="4" height="3"/>
<rect x="254" y="218" width="4" height="3"/>
<rect x="274" y="218" width="4" height="3"/>
<rect x="310" y="218" width="4" height="3"/>
<rect x="330" y="218" width="4" height="3"/>
<rect x="386" y="218" width="4" height="3"/>
<rect x="142" y="222" width="4" height="3"/>
<rect x="162" y="222" width="4" height="3"/>
<rect x="170" y="222" width="4" height="3"/>
<rect x="186" y="222" width="4" height="3"/>
<rect x="206" y="222" width="4" height="3"/>
<rect x="226" y="222" width="4" height="3"/>
<rect x="242" y="222" width="4" height="3"/>
<rect x="254" y="222" width="4" height="3"/>
<rect x="274" y="222" width="4" height="3"/>
<rect x="310" y="222" width="4" height="3"/>
<rect x="330" y="222" width="4" height="3"/>
<rect x="346" y="222" width="8" height="3"/>
<rect x="382" y="222" width="4" height="3"/>
<rect x="142" y="226" width="4" height="3"/>
<rect x="162" y="226" width="4" height="3"/>
<rect x="170" y="226" width="4" height="3"/>
<rect x="190" y="226" width="4" height="3"/>
<rect x="198" y="226" width="20" height="3"/>
<rect x="226" y="226" width="4" height="3"/>
<rect x="246" y="226" width="4" height="3"/>
<rect x="254" y="226" width="4" height="3"/>
<rect x="274" y="226" width="4" height="3"/>
<rect x="314" y="226" width="16" height="3"/>
<rect x="346" y="226" width="8" height="3"/>
<rect x="366" y="226" width="16" height="3"/>
</g></svg>